<svg width="6" height="12" fill="none" xmlns="http://www.w3.org/2000/svg"><path fill-rule="evenodd" clip-rule="evenodd" d="M3.178 3.133l.06.012a.308.308 0 01.155.055l1.411.99c.229.16.364.414.364.684v1.368a.291.291 0 01-.3.283.291.291 0 01-.298-.283V4.874a.279.279 0 00-.121-.228l-.718-.504v2.1a.554.554 0 01-.193.417L1.933 8.057a.562.562 0 00-.177.287l-.576 2.305a.6.6 0 01-.72.42.566.566 0 01-.444-.682l.577-2.305c.082-.33.268-.63.532-.86l.815-.71v-2.47c0-.189.1-.366.266-.471l.55-.349a.624.624 0 01.422-.089zM2.731 8.07l.87-.715c.042.027.082.06.118.097l.05.06 1.907 2.69a.55.55 0 01-.162.787.62.62 0 01-.788-.1l-.042-.054-1.908-2.69a.564.564 0 01-.045-.075l.87-.715-.87.715zM1.673 4.945v.75l-.695.575a.312.312 0 01-.383.007l-.039-.035a.272.272 0 01-.008-.363l.038-.037 1.087-.897zM1.85.805c.66 0 1.196.507 1.196 1.133S2.51 3.072 1.85 3.072c-.66 0-1.195-.508-1.195-1.134 0-.626.535-1.134 1.195-1.134z" fill="#000"/></svg>