<svg width="17" height="15" fill="none" xmlns="http://www.w3.org/2000/svg"><path fill-rule="evenodd" clip-rule="evenodd" d="M1.17 1.34c-.265-.262-.708-.017-.627.346L3.27 14.022c.038.17.19.293.364.293h9.267a.373.373 0 00.365-.293l2.728-12.336c.08-.363-.363-.608-.627-.346l-2.911 2.884a.267.267 0 01-.376 0L8.531.708a.373.373 0 00-.525 0l-3.55 3.516a.267.267 0 01-.375 0L1.171 1.34zm4.646 9.774a.213.213 0 00-.214.214v.64c0 .118.096.213.214.213h4.906a.213.213 0 00.214-.213v-.64a.213.213 0 00-.214-.213H5.816z" fill="#fff"/></svg>