<svg width="20" height="23" fill="none" xmlns="http://www.w3.org/2000/svg"><path fill-rule="evenodd" clip-rule="evenodd" d="M14.756 2.702a9.136 9.136 0 00-6.02 4.37l-1.86 3.223-2.769.742a.266.266 0 00-.187.184l-.484 1.692c-.043.15.05.304.203.335l1.37.28 5.542 3.2.928 1.047c.103.116.283.12.391.008l1.224-1.265a.267.267 0 00.066-.255l-.742-2.768 1.86-3.223a9.136 9.136 0 00.775-7.399.256.256 0 00-.297-.171zm-3.51 6.422a1.067 1.067 0 101.067-1.848 1.067 1.067 0 00-1.066 1.848z" fill="#fff"/><path d="M5.186 19.96a4.568 4.568 0 002.899-2.16l.38-.658a.267.267 0 00-.098-.364l-2.31-1.333a.267.267 0 00-.363.097l-.38.659a4.568 4.568 0 00-.422 3.59c.038.126.166.2.294.17z" fill="#fff"/></svg>