<svg width="17" height="15" viewBox="0 0 17 15" fill="none" xmlns="http://www.w3.org/2000/svg">
<path fill-rule="evenodd" clip-rule="evenodd" d="M1.17006 1.34041C0.905493 1.07836 0.462403 1.32268 0.542812 1.68627L3.27086 14.0218C3.30868 14.1928 3.46027 14.3145 3.63539 14.3145H12.9025C13.0776 14.3145 13.2292 14.1928 13.267 14.0218L15.9951 1.68627C16.0755 1.32268 15.6324 1.07836 15.3678 1.34041L12.4566 4.2239C12.3527 4.32684 12.1852 4.32684 12.0813 4.2239L8.53165 0.708085C8.38615 0.563969 8.15171 0.56397 8.00621 0.708085L4.45659 4.2239C4.35266 4.32684 4.18521 4.32684 4.08128 4.2239L1.17006 1.34041ZM5.8156 11.1145C5.69778 11.1145 5.60227 11.21 5.60227 11.3279V11.9679C5.60227 12.0857 5.69778 12.1812 5.8156 12.1812H10.7223C10.8401 12.1812 10.9356 12.0857 10.9356 11.9679V11.3279C10.9356 11.21 10.8401 11.1145 10.7223 11.1145H5.8156Z" fill="white"/>
</svg>
