<svg width="20" height="23" viewBox="0 0 20 23" fill="none" xmlns="http://www.w3.org/2000/svg">
<path fill-rule="evenodd" clip-rule="evenodd" d="M14.7564 2.70199C12.2243 3.2378 10.034 4.82419 8.73638 7.0718L6.87535 10.2952L4.107 11.037C4.01653 11.0612 3.9454 11.1311 3.91964 11.2212L3.43558 12.9134C3.39285 13.0627 3.48631 13.2168 3.6385 13.248L5.00868 13.5284L10.5512 16.7284L11.4792 17.7748C11.5822 17.891 11.7624 17.8949 11.8704 17.7832L13.0938 16.5179C13.1589 16.4506 13.1839 16.354 13.1597 16.2635L12.4179 13.4952L14.2789 10.2718C15.5766 8.02419 15.8553 5.33419 15.0533 2.87342C15.0126 2.74864 14.8848 2.67482 14.7564 2.70199ZM11.2466 9.12391C11.7568 9.41846 12.4092 9.24366 12.7037 8.73348C12.9983 8.2233 12.8235 7.57094 12.3133 7.27639C11.8031 6.98184 11.1508 7.15664 10.8562 7.66682C10.5617 8.17699 10.7365 8.82936 11.2466 9.12391Z" fill="white"/>
<path d="M5.1859 19.9605C6.40475 19.6706 7.45495 18.8913 8.0847 17.8005L8.46483 17.1421C8.53846 17.0146 8.49476 16.8515 8.36722 16.7779L6.05782 15.4445C5.93027 15.3709 5.76718 15.4146 5.69354 15.5421L5.31342 16.2005C4.68367 17.2913 4.53386 18.5905 4.89228 19.7909C4.92982 19.9167 5.05822 19.9908 5.1859 19.9605Z" fill="white"/>
</svg>
